<svg xmlns="http://www.w3.org/2000/svg" width="96.685" height="40" viewBox="0 0 96.685 40">
  <g id="Group_20" data-name="Group 20" transform="translate(0 0)">
    <path id="Path_1" data-name="Path 1" d="M232.014,59.374c-.041,0-.082.007-.123.007-1.63,0-3.26,0-4.889,0a.394.394,0,0,1-.333-.175q-2.992-3.571-5.987-7.139-4.013-4.782-8.026-9.563c-.258-.307-.259-.3-.016-.593q6.782-8.084,13.552-16.178A1.717,1.717,0,0,1,227.753,25c1.322.069,2.65.02,3.975.02h.326c-.1.124-.161.212-.23.3q-7.006,8.351-14.017,16.7c-.121.144-.135.221-.007.372q5.41,6.431,10.809,12.872,1.665,1.984,3.329,3.971C231.971,59.265,232.023,59.3,232.014,59.374Z" transform="translate(-164.892 -19.398)" fill="#ab0e1c" fill-rule="evenodd"/>
    <path id="Path_2" data-name="Path 2" d="M188.614,59.407c-.064.047-.137.023-.2.023-1.585,0-3.17,0-4.755.006a.476.476,0,0,1-.405-.2q-2.315-2.771-4.637-5.536l-6.329-7.55q-1.57-1.872-3.146-3.738a.212.212,0,0,1,0-.334q2.024-2.4,4.041-4.809l5.16-6.148,4.384-5.223c.2-.233.395-.463.586-.7a.378.378,0,0,1,.324-.15q2.485.005,4.966,0c.049.08-.011.122-.048.167q-2.563,3.053-5.127,6.106-3,3.578-6,7.158c-.995,1.186-1.987,2.374-2.993,3.551a.263.263,0,0,0,0,.418q2.329,2.76,4.646,5.529,2.872,3.424,5.743,6.85,1.863,2.222,3.728,4.441C188.571,59.311,188.626,59.34,188.614,59.407Z" transform="translate(-131.205 -19.441)" fill="#827f80" fill-rule="evenodd"/>
    <path id="Path_3" data-name="Path 3" d="M144.081,42.218q0,8.435.007,16.87c0,.281-.08.334-.341.331-1.361-.013-2.722-.006-4.083-.006-.349,0-.349,0-.349-.341q0-16.185,0-32.37c0-.466.011-.932,0-1.4-.008-.221.074-.27.279-.269,1.406.007,2.812.009,4.217,0,.228,0,.279.068.279.286q-.009,7.065,0,14.13Z" transform="translate(-108.12 -19.43)" fill="#827f80" fill-rule="evenodd"/>
    <path id="Path_4" data-name="Path 4" d="M410.715,42.217V25.4c0-.361,0-.361.365-.361,1.361,0,2.722.005,4.083-.006.229,0,.279.069.279.287q-.008,16.909,0,33.819c0,.227-.063.28-.283.279-1.379-.01-2.758-.014-4.137,0-.277,0-.313-.092-.312-.335Q410.72,50.651,410.715,42.217Z" transform="translate(-318.757 -19.43)" fill="#827f80" fill-rule="evenodd"/>
    <path id="Path_5" data-name="Path 5" d="M319.948,29.8q-4.766,0-9.532.005c-.227,0-.3-.043-.3-.29.013-1.4.011-2.793,0-4.189,0-.212.039-.291.274-.291q9.559.01,19.119,0c.215,0,.292.045.29.277q-.016,2.108,0,4.216c0,.234-.078.276-.291.275Q324.728,29.8,319.948,29.8Z" transform="translate(-240.683 -19.43)" fill="#827f80" fill-rule="evenodd"/>
    <path id="Path_6" data-name="Path 6" d="M319.964,157.419q4.754,0,9.508-.006c.249,0,.335.046.332.317-.015,1.388-.012,2.776,0,4.163,0,.217-.065.265-.271.264q-9.576-.007-19.151,0c-.224,0-.261-.075-.259-.274q.011-2.1,0-4.19c0-.225.06-.282.283-.281Q315.183,157.424,319.964,157.419Z" transform="translate(-240.687 -122.17)" fill="#827f80" fill-rule="evenodd"/>
    <path id="Path_7" data-name="Path 7" d="M316.751,96c-2.113,0-4.226,0-6.339.006-.242,0-.3-.068-.294-.3q.016-2.108,0-4.217c0-.2.059-.253.257-.253q6.38.009,12.759,0c.217,0,.267.064.266.271q-.013,2.109,0,4.217c0,.224-.062.282-.284.281C320.995,96,318.873,96,316.751,96Z" transform="translate(-240.686 -70.809)" fill="#827f80" fill-rule="evenodd"/>
    <path id="Path_8" data-name="Path 8" d="M141.7,4.792c-.716,0-1.432-.005-2.148,0-.178,0-.23-.053-.229-.228q.008-2.148,0-4.3c0-.159.04-.218.21-.217q2.176.009,4.351,0c.165,0,.213.047.212.212q-.009,2.162,0,4.324c0,.173-.065.207-.22.206C143.148,4.789,142.423,4.792,141.7,4.792Z" transform="translate(-108.128 -0.042)" fill="#827f80" fill-rule="evenodd"/>
    <g id="Group_3" data-name="Group 3" transform="translate(0 0)">
      <path id="Path_9" data-name="Path 9" d="M28.5,39.708q-3.046-4.881-6.093-9.76c-.992-1.584-1.946-3.191-3.006-4.731a9.744,9.744,0,0,0-4.083-3.655c-.043-.019-.081-.039-.085-.1.08-.1.208-.09.315-.12a14.517,14.517,0,0,0,2.835-1.121,10.351,10.351,0,0,0,4.87-5.166,11.568,11.568,0,0,0,.725-6.186,9.292,9.292,0,0,0-5.241-7.436A14.269,14.269,0,0,0,12.223.013C8.239-.01,4.254.009.27,0,.032,0,0,.075,0,.286Q.008,20,0,39.72c0,.224.056.28.279.278C1.64,39.987,3,39.983,4.362,40c.288,0,.343-.082.342-.352q-.012-8.287-.011-16.574c0-.223.056-.284.28-.282q1.813.017,3.626,0a6.306,6.306,0,0,1,4.584,1.758,16.262,16.262,0,0,1,2.724,3.441q3.535,5.87,7.031,11.763a.418.418,0,0,0,.418.24c1.674-.01,3.349,0,5.023-.007a.463.463,0,0,0,.276-.034C28.6,39.871,28.555,39.789,28.5,39.708ZM13.336,18.488a10.85,10.85,0,0,1-2.529.259c-1.934.009-3.868,0-5.8.008-.237,0-.315-.047-.314-.3C4.7,16.133,4.7,13.814,4.7,11.5s0-4.638-.005-6.957c0-.221.052-.284.279-.283,2.185.009,4.37-.015,6.554.013a9.541,9.541,0,0,1,4.286.935,5.81,5.81,0,0,1,3.282,4.636,7.921,7.921,0,0,1-1.112,5.532A7.282,7.282,0,0,1,13.336,18.488Z" transform="translate(0 0)" fill="#ab0e1c"/>
    </g>
  </g>
</svg>
